<svg xmlns="http://www.w3.org/2000/svg" viewBox="0 0 64 64">
  <defs>
    <linearGradient id="fb-gold" x1="10" y1="8" x2="54" y2="56" gradientUnits="userSpaceOnUse">
      <stop offset="0" stop-color="#eadfcf"/>
      <stop offset="0.42" stop-color="#d7c4a6"/>
      <stop offset="0.78" stop-color="#bfa985"/>
      <stop offset="1" stop-color="#e7dbc7"/>
    </linearGradient>
    <filter id="fb-soft" x="-20%" y="-20%" width="140%" height="140%">
      <feDropShadow dx="0" dy="0.9" stdDeviation="1.0" flood-color="#000000" flood-opacity="0.12"/>
    </filter>
    <linearGradient id="fb-hi" x1="20" y1="18" x2="34" y2="40" gradientUnits="userSpaceOnUse">
      <stop offset="0" stop-color="#ffffff" stop-opacity="0.55"/>
      <stop offset="1" stop-color="#ffffff" stop-opacity="0"/>
    </linearGradient>
  </defs>

  <rect x="6" y="6" width="52" height="52" rx="14" fill="#faf8f4" filter="url(#fb-soft)"/>

  <path d="M32 16
           C24.2 16 18 21.7 18 29
           C18 35.8 23.2 41.2 29.8 42.0
           L32 46
           L34.2 42.0
           C40.8 41.2 46 35.8 46 29
           C46 21.7 39.8 16 32 16 Z"
        fill="none" stroke="url(#fb-gold)" stroke-width="2" stroke-linejoin="round"/>

  <path d="M30.7 43.0 L32 46.0 L33.3 43.0"
        fill="none" stroke="#cbb38e" stroke-width="1.35"
        stroke-linecap="round" stroke-linejoin="round" opacity="0.9"/>

  <path d="M25.2 24.2
           C23.6 26.0 22.9 28.0 22.9 30.2"
        fill="none" stroke="url(#fb-hi)" stroke-width="2" stroke-linecap="round"/>

  <path d="M46.8 18.6
           l0.7 1.7 1.7 0.7-1.7 0.7-0.7 1.7-0.7-1.7-1.7-0.7 1.7-0.7 0.7-1.7z"
        fill="#e9ddc8" opacity="0.75"/>
</svg>
